<?xml version="1.0" encoding="UTF-8"?>
<svg width="200px" height="200px" viewBox="0 0 200 200" version="1.1" xmlns="http://www.w3.org/2000/svg" xmlns:xlink="http://www.w3.org/1999/xlink">
    <title>Image Placeholder</title>
    <g stroke="none" stroke-width="1" fill="none" fill-rule="evenodd">
        <rect fill="#2A2A2A" x="0" y="0" width="200" height="200"></rect>
        <g transform="translate(50.000000, 50.000000)" fill="#555555">
            <path d="M100,0 L100,100 L0,100 L0,0 L100,0 Z M87.5,12.5 L12.5,12.5 L12.5,87.5 L87.5,87.5 L87.5,12.5 Z"></path>
            <path d="M37.5,37.5 C41.6421356,37.5 45,40.8578644 45,45 C45,49.1421356 41.6421356,52.5 37.5,52.5 C33.3578644,52.5 30,49.1421356 30,45 C30,40.8578644 33.3578644,37.5 37.5,37.5 Z"></path>
            <path d="M75,50 L87.5,75 L62.5,75 L50,50 L37.5,62.5 L12.5,87.5 L87.5,87.5 L87.5,50 L75,50 Z"></path>
        </g>
    </g>
</svg>
